<svg width="18" height="18" viewBox="0 0 18 18" fill="none" xmlns="http://www.w3.org/2000/svg" class="MuiSvgIcon-root" focusable="false" aria-hidden="true"><path class="pathStyle" d="M3.58591 12.537C4.90264 14.47 6.69564 15.4367 8.96491 15.4367C11.2341 15.4367 13.0271 14.47 14.3439 12.537C14.3159 11.7526 13.6855 11.0942 12.4528 10.5618C11.2201 10.0296 10.0576 9.76342 8.96491 9.76342C7.8723 9.76342 6.70966 10.0296 5.47697 10.5618C4.24428 11.0662 3.61392 11.7245 3.58591 12.537ZM10.856 3.50195C10.3236 2.96966 9.69331 2.7035 8.96491 2.7035C8.2365 2.7035 7.60616 2.96966 7.07385 3.50195C6.54156 4.03425 6.27541 4.6646 6.27541 5.393C6.27541 6.12141 6.54156 6.75177 7.07385 7.28406C7.60616 7.81636 8.2365 8.0825 8.96491 8.0825C9.69331 8.0825 10.3236 7.81636 10.856 7.28406C11.3882 6.75177 11.6544 6.12141 11.6544 5.393C11.6544 4.6646 11.3882 4.03425 10.856 3.50195ZM2.61937 2.66148C4.38435 0.8965 6.49953 0.0140076 8.96491 0.0140076C11.4303 0.0140076 13.5315 0.8965 15.2684 2.66148C17.0334 4.39845 17.9159 6.49963 17.9159 8.965C17.9159 11.4304 17.0334 13.5456 15.2684 15.3105C13.5315 17.0475 11.4303 17.916 8.96491 17.916C6.49953 17.916 4.38435 17.0475 2.61937 15.3105C0.8824 13.5456 0.013916 11.4304 0.013916 8.965C0.013916 6.49963 0.8824 4.39845 2.61937 2.66148Z"></path></svg>