<svg width="18" height="19" viewBox="0 0 18 18" fill="none" xmlns="http://www.w3.org/2000/svg" class="MuiSvgIcon-root" focusable="false" aria-hidden="true"><path class="pathStyle" d="M17.1611 9.64107C17.1018 9.55208 17.1018 9.47792 17.1018 9.37409V1.75023C17.1018 0.800951 16.6716 0.252151 15.752 0.0148325C15.7372 0.0148325 15.7372 0 15.7224 0H1.37941C1.18659 0.0593297 0.978939 0.103827 0.80095 0.207654C0.415307 0.444973 0.163156 0.771286 0.0444971 1.21626C0.0296647 1.26076 0.0148324 1.32009 0 1.36458V15.7224C0.0296648 15.8262 0.0444973 15.9152 0.0741621 16.0042C0.296648 16.6716 0.889945 17.0869 1.63157 17.0869C4.19757 17.0869 6.74875 17.0869 9.31476 17.0869C9.44825 17.0869 9.59658 17.1166 9.7004 17.2056C12.919 19.1932 17.2204 17.2946 17.8879 13.5865C18.1697 12.1774 17.9176 10.8573 17.1611 9.64107ZM9.07744 1.21626C9.07744 1.0976 9.1071 1.0531 9.2406 1.0531C11.3171 1.0531 13.3937 1.0531 15.4702 1.0531C15.8262 1.0531 16.0487 1.26076 16.0487 1.6019V8.29132C16.0487 8.30616 16.0487 8.32099 16.0487 8.33582C13.7348 6.70425 11.421 6.70425 9.10711 8.33582C9.07744 8.30616 9.09227 8.26166 9.09227 8.21716C9.07744 5.87364 9.07744 3.54495 9.07744 1.21626ZM1.06793 1.63157C1.06793 1.27559 1.29042 1.06793 1.63157 1.06793C3.7081 1.06793 5.79948 1.06793 7.87601 1.06793C8.00951 1.06793 8.02434 1.0976 8.02434 1.23109C8.02434 2.34352 8.02434 3.45595 8.02434 4.56839C8.02434 5.66598 8.02434 6.77842 8.02434 7.87601C8.02434 8.00951 7.99467 8.03917 7.86118 8.03917C5.65115 8.03917 3.42629 8.03917 1.21626 8.03917C1.0976 8.03917 1.0531 8.00951 1.0531 7.89085C1.0531 5.79948 1.0531 3.7081 1.06793 1.63157ZM1.6909 16.0487C1.26076 16.0487 1.0531 15.8559 1.0531 15.4109C1.0531 13.364 1.0531 11.3171 1.0531 9.27026C1.0531 9.10711 1.0976 9.07744 1.26076 9.07744C3.45595 9.07744 5.65115 9.07744 7.83152 9.07744C7.97984 9.07744 8.02434 9.10711 8.02434 9.27026C8.02434 9.44825 7.97984 9.61141 7.89085 9.75973C6.71909 11.7028 6.86741 14.1205 8.26166 15.9152C8.29132 15.9448 8.33582 15.9745 8.33582 16.0487H1.6909ZM12.5779 16.9535C10.1602 16.9535 8.17266 14.9956 8.17266 12.5631C8.17266 10.1454 10.1305 8.15783 12.5631 8.15783C14.9807 8.15783 16.9683 10.1305 16.9683 12.5482C16.9683 14.9807 14.9956 16.9535 12.5779 16.9535Z"></path><path d="M14.3281 11.6879C14.3281 11.9994 14.0908 12.2071 13.7348 12.2071H12.5779C12.1774 12.2071 11.7917 12.2071 11.4061 12.2071C11.065 12.2071 10.8276 11.9846 10.8276 11.6879C10.8276 11.3765 11.065 11.154 11.4209 11.154C12.1922 11.154 12.9783 11.154 13.7496 11.154C14.0759 11.154 14.3281 11.3765 14.3281 11.6879Z"></path><path d="M14.328 13.4382C14.328 13.7497 14.0907 13.9721 13.7347 13.9721C12.9634 13.9721 12.1773 13.9721 11.406 13.9721C11.0501 13.9721 10.8127 13.7497 10.8127 13.4382C10.8127 13.1267 11.0501 12.919 11.406 12.919H12.563C12.9486 12.919 13.3491 12.919 13.7347 12.919C14.0759 12.919 14.3132 13.1267 14.328 13.4382Z"></path><path d="M6.30386 4.55355C6.30386 4.83537 6.06654 5.07269 5.78472 5.07269C5.5919 5.07269 5.38425 5.07269 5.19143 5.07269C5.10243 5.07269 5.07277 5.10235 5.07277 5.19135C5.07277 5.38417 5.07277 5.56216 5.07277 5.75498C5.07277 6.06646 4.85028 6.30378 4.55363 6.30378C4.25698 6.30378 4.01966 6.06646 4.01966 5.75498C4.01966 5.72532 4.01966 5.69565 4.01966 5.66599C4.00483 5.47317 4.10866 5.22101 3.99 5.11719C3.87134 4.99853 3.61919 5.08752 3.42637 5.08752C3.3967 5.08752 3.36704 5.08752 3.33737 5.08752C3.02589 5.07269 2.78857 4.8502 2.78857 4.56839C2.78857 4.27174 3.01106 4.04925 3.33737 4.03442C3.5302 4.03442 3.72302 4.03442 3.91584 4.03442C4.00483 4.03442 4.0345 4.00476 4.01966 3.93059C4.01966 3.73777 4.01966 3.54495 4.01966 3.35213C4.01966 3.04065 4.25698 2.80333 4.55363 2.80333C4.85028 2.80333 5.07277 3.04065 5.07277 3.35213C5.07277 3.44112 5.07277 3.53012 5.07277 3.61911C5.07277 4.03442 5.07277 4.03442 5.50291 4.03442C5.5919 4.03442 5.69573 4.03442 5.78472 4.03442C6.08137 4.01959 6.30386 4.25691 6.30386 4.55355Z"></path><path d="M14.1503 4.53872C14.1503 4.8502 13.913 5.05786 13.5718 5.05786C13.2455 5.05786 12.9043 5.05786 12.578 5.05786C12.2369 5.05786 11.8957 5.05786 11.5546 5.05786C11.2283 5.05786 10.991 4.83537 10.991 4.53872C10.991 4.22724 11.2283 4.00475 11.5694 4.00475C12.2369 4.00475 12.9192 4.00475 13.5866 4.00475C13.913 4.01959 14.1503 4.24207 14.1503 4.53872Z"></path><path d="M5.76985 13.0525C5.99234 13.2898 6.00717 13.6162 5.78468 13.8238C5.57703 14.0315 5.26555 14.0166 5.02823 13.809C4.89474 13.6755 4.76125 13.542 4.62775 13.4085C4.56843 13.3343 4.5091 13.3343 4.44977 13.4085C4.33111 13.542 4.18278 13.6755 4.04929 13.809C3.81197 14.0315 3.48566 14.0463 3.278 13.8238C3.07035 13.6162 3.08518 13.3047 3.30767 13.0674C3.44116 12.9339 3.57465 12.8004 3.70815 12.6669C3.78231 12.5927 3.78231 12.5482 3.70815 12.4889C3.55982 12.3554 3.4115 12.2071 3.278 12.0588C3.12968 11.8956 3.10002 11.6879 3.18901 11.4803C3.27801 11.2726 3.44116 11.1836 3.63398 11.1688C3.81197 11.1688 3.94546 11.2281 4.04929 11.332C4.18278 11.4655 4.31627 11.599 4.44977 11.7324C4.52393 11.8066 4.56843 11.8066 4.62775 11.7324C4.76125 11.599 4.89474 11.4655 5.02823 11.332C5.26555 11.1095 5.59186 11.0946 5.79952 11.3171C6.00717 11.5248 5.99234 11.8363 5.78468 12.0736C5.65119 12.2071 5.5177 12.3406 5.38421 12.4741C5.31005 12.5334 5.31005 12.5927 5.38421 12.6521C5.5177 12.7707 5.65119 12.919 5.76985 13.0525Z"></path></svg>