<svg width="16" height="19" viewBox="0 0 18 18" fill="none" xmlns="http://www.w3.org/2000/svg" class="MuiSvgIcon-root" focusable="false" aria-hidden="true"><path class="pathStyle" d="M3.58045 18.7183H14.7661C15.2801 18.7183 15.6569 18.3415 15.6569 17.8276C15.6569 17.3652 15.3486 17.0739 14.9802 16.8856C13.9525 16.3802 13.7555 14.8727 14.8432 13.8878C15.3572 13.4511 15.6483 13.0227 15.6483 12.1491V2.94192C15.6483 1.04053 14.6376 0.0127437 12.7449 0.0127437H3.59757C1.70474 0.0127437 0.694092 1.03195 0.694092 2.94192V15.8235C0.694092 17.6992 1.70474 18.7183 3.58045 18.7183ZM12.5393 1.97409C13.3101 1.97409 13.6869 2.37664 13.6869 3.11322V11.8323C13.6869 12.2091 13.4728 12.4232 13.0875 12.4232H4.94226V1.97409H12.5393ZM2.65544 12.6801V3.11322C2.65544 2.41947 2.9809 2.02549 3.65753 1.98266V12.4232C3.27211 12.4489 2.94664 12.5345 2.65544 12.6801ZM6.48393 5.75119H12.1368C12.4879 5.75119 12.7791 5.45999 12.7791 5.10884C12.7791 4.75767 12.4879 4.46647 12.1368 4.46647H6.48393C6.12421 4.46647 5.83301 4.75767 5.83301 5.10884C5.83301 5.45999 6.12421 5.75119 6.48393 5.75119ZM6.48393 8.16649H10.7664C11.1175 8.16649 11.4087 7.87528 11.4087 7.51556C11.4087 7.1644 11.1175 6.87319 10.7664 6.87319H6.48393C6.12421 6.87319 5.83301 7.1644 5.83301 7.51556C5.83301 7.87528 6.12421 8.16649 6.48393 8.16649ZM3.92304 16.9369C2.97234 16.9369 2.48414 16.3716 2.48414 15.5579C2.48414 14.7871 3.0323 14.2047 3.97442 14.2047H12.3423C12.4279 14.2047 12.5136 14.1961 12.5906 14.179C12.1539 15.1041 12.1881 16.1232 12.6506 16.9369H3.92304Z"></path></svg>